<?xml version="1.0" encoding="utf-8"?><!DOCTYPE svg PUBLIC "-//W3C//DTD SVG 1.1//EN" "http://www.w3.org/Graphics/SVG/1.1/DTD/svg11.dtd"><svg xmlns="http://www.w3.org/2000/svg" xmlns:xlink="http://www.w3.org/1999/xlink"><symbol viewBox="0 0 24 24" id="icon-list" xmlns="http://www.w3.org/2000/svg"><g><path d="M4 4h4v4H4zM4 10h4v4H4zM4 16h4v4H4zM11 5h9v2h-9zM11 11h9v2h-9zM11 17h9v2h-9z"/></g></symbol><symbol viewBox="0 0 24 24" id="icon-grid" xmlns="http://www.w3.org/2000/svg"><g><path d="M4 4h4v4H4zM10 4h4v4h-4zM16 4h4v4h-4zM4 10h4v4H4zM10 10h4v4h-4zM16 10h4v4h-4zM4 16h4v4H4zM10 16h4v4h-4zM16 16h4v4h-4z"/></g></symbol><symbol viewBox="0 0 24 24" id="icon-comment" xmlns="http://www.w3.org/2000/svg"><path d="M18.6 3H5.4C4.1 3 3 4.1 3 5.4V15c0 1.3 1.1 2.4 2.4 2.4h3L12 21l3.6-3.6h3c1.3 0 2.4-1.1 2.4-2.4V5.4C21 4.1 19.9 3 18.6 3zM20 15c0 .8-.6 1.4-1.4 1.4h-3.4L12 19.6l-3.2-3.2H5.4c-.8 0-1.4-.6-1.4-1.4V5.4C4 4.6 4.6 4 5.4 4h13.2c.8 0 1.4.6 1.4 1.4V15z"/></symbol><symbol viewBox="0 0 25 21" id="icon-email-preview" xmlns="http://www.w3.org/2000/svg"><g fill-rule="nonzero"><path d="M1 0h23c.552 0 1 .522 1 1.167v18.666c0 .645-.448 1.167-1 1.167H1c-.552 0-1-.522-1-1.167V1.167C0 .522.448 0 1 0zm.92 1C1.412 1 1 1.473 1 2.056v16.888c0 .583.412 1.056.92 1.056h21.16c.508 0 .92-.473.92-1.056V2.056C24 1.473 23.588 1 23.08 1H1.92z"/><path d="M12.5 5c3.248 0 6.194 1.929 8.367 5.066a.781.781 0 0 1 0 .872C18.694 14.07 15.748 16 12.5 16c-3.248 0-6.194-1.929-8.367-5.066a.781.781 0 0 1 0-.872C6.306 6.93 9.252 5 12.5 5zm.293 9.99a4.525 4.525 0 0 0 4.198-4.197 4.503 4.503 0 0 0-4.784-4.784 4.51 4.51 0 0 0-4.198 4.198 4.503 4.503 0 0 0 4.784 4.784z"/><path d="M12.663 12.995a2.502 2.502 0 0 1-2.658-2.658 2.506 2.506 0 0 1 2.332-2.332 2.502 2.502 0 0 1 2.658 2.658 2.514 2.514 0 0 1-2.332 2.332z"/></g></symbol><symbol viewBox="0 0 24 24" id="icon-facebook" xmlns="http://www.w3.org/2000/svg"><path d="M13.4 21.4v-8.6h2.9l.5-3.4h-3.3V7.3c-.1-1 .2-1.7 1.6-1.7h1.8V2.7c-.4-.1-1.4-.2-2.6-.2-2.6 0-4.3 1.6-4.3 4.4v2.5H7.1v3.4H10v8.7l3.4-.1z"/></symbol><symbol viewBox="0 0 24 24" id="icon-follow" xmlns="http://www.w3.org/2000/svg"><path d="M11.9 19.7c-.1 0-.2 0-.3-.1C10.2 18.8 3 14.2 3 9.1c0-2.7 2.2-4.8 4.8-4.8 1.3 0 2.5.5 3.4 1.4.2.2.2.5 0 .7-.2.2-.5.2-.7 0-.7-.8-1.7-1.2-2.7-1.2C5.7 5.2 4 6.9 4 9.1c0 4.5 6.5 8.7 7.9 9.7 1.5-.7 8.1-3.9 8.1-9.5 0-2.1-1.7-3.8-3.9-3.8-2.1 0-3.9 1.7-3.9 3.8 0 .3-.2.5-.5.5s-.5-.2-.5-.5c0-2.7 2.2-4.8 4.8-4.8 2.7 0 4.8 2.2 4.8 4.8 0 6.6-7.5 9.9-9 10.5.2-.1.1-.1.1-.1z"/></symbol><symbol viewBox="0 0 24 24" id="icon-following" xmlns="http://www.w3.org/2000/svg"><path d="M16 4.5c-1.7 0-3.3.9-4.1 2.3-.8-1.4-2.4-2.3-4.1-2.3C5.1 4.5 3 6.7 3 9.3c0 6.5 7.2 9.8 8.9 10.5 1.7-.7 8.9-4 8.9-10.5 0-2.6-2.1-4.8-4.8-4.8z"/></symbol><symbol viewBox="0 0 16 16" id="icon-insert" xmlns="http://www.w3.org/2000/svg"><path d="M11 10L8.1 6.8 4.8 10H7v1.8c0 1.7-.9 4.2-4 4.2 4.8 0 6-1.4 6-4.3V10h2z"/><path d="M0 0v13h6v-1H1V3h14v9h-5v1h6V0H0zm2 2H1V1h1v1zm11 0H3V1h10v1z"/></symbol><symbol viewBox="0 0 24 19" id="icon-left-arrow" xmlns="http://www.w3.org/2000/svg"><g fill-rule="nonzero"><path d="M23.027 8.31H.97a.97.97 0 0 0 0 1.94h22.058a.97.97 0 1 0 0-1.94z"/><path d="M2.34 9.28l7.587-7.586A.97.97 0 1 0 8.556.323L.284 8.595a.97.97 0 0 0 0 1.37l8.272 8.272a.966.966 0 0 0 1.37 0 .97.97 0 0 0 0-1.37L2.34 9.28z"/></g></symbol><symbol viewBox="-408 286.3 24 24" id="icon-link" xmlns="http://www.w3.org/2000/svg"><path d="M-395.1 301.8c-.5 0-.9-.1-1.3-.3-.4-.2-.8-.4-1.2-.8l-.9-.9c-.3-.3-.6-.7-.8-1.2l.9-.4c.1.3.3.6.5.8l.9.9c.2.2.5.4.8.5.6.2 1.3.2 1.9 0 .3-.1.6-.3.8-.5l4.3-4.3c.2-.2.4-.5.5-.8.1-.3.2-.6.2-.9 0-.3-.1-.6-.2-.9-.1-.3-.3-.6-.5-.8l-.9-.9c-.2-.2-.5-.4-.8-.5-.6-.2-1.3-.2-1.9 0-.3.1-.6.3-.8.5l-2.1 2.1-.7-.7 2.1-2.1c.3-.3.7-.6 1.2-.8.8-.3 1.8-.3 2.6 0 .4.2.8.4 1.2.8l.9.9c.3.3.6.7.8 1.2.2.4.3.9.3 1.3 0 .5-.1.9-.3 1.3-.2.4-.4.8-.8 1.2l-4.3 4.3c-.3.3-.7.6-1.2.8-.3.1-.8.2-1.2.2z"/><path d="M-400.3 306.9c-.5 0-.9-.1-1.3-.3-.4-.2-.8-.4-1.2-.8l-.9-.9c-.3-.3-.6-.7-.8-1.2-.2-.4-.3-.9-.3-1.3 0-.5.1-.9.3-1.3.2-.4.4-.8.8-1.2l4.3-4.3c.3-.3.7-.6 1.2-.8.8-.3 1.8-.3 2.6 0 .4.2.8.4 1.2.8l.9.9c.3.3.6.7.8 1.2l-.9.4c-.1-.3-.3-.6-.5-.8l-.9-.9c-.2-.2-.5-.4-.8-.5-.6-.2-1.3-.2-1.9 0-.3.1-.6.3-.8.5l-4.3 4.3c-.2.2-.4.5-.5.8-.1.3-.2.6-.2.9s.1.6.2.9c.1.3.3.6.5.8l.9.9c.2.2.5.4.8.6.6.2 1.3.2 1.9 0 .3-.1.6-.3.8-.5l2.1-2.1.7.7-2.1 2.1c-.3.3-.7.6-1.2.8-.5.2-.9.3-1.4.3z"/></symbol><symbol viewBox="0 0 24 24" id="icon-linkedin" xmlns="http://www.w3.org/2000/svg"><path d="M21.6 14.1v7h-4.1v-6.6c0-1.6-.6-2.8-2.1-2.8-1.2 0-1.8.8-2.1 1.4-.1.3-.2.6-.2 1v7h-4s.1-11.1 0-12.4h4.1v1.7c.5-.9 1.4-2 3.6-2 2.8.1 4.8 1.8 4.8 5.7zM4.8 2.9c-1.4 0-2.4 1-2.4 2 0 1.2.9 2.1 2.3 2.1s2.4-1 2.4-2.1c0-1.2-1-2-2.3-2zM2.7 21.1h4V8.7h-4v12.4z"/></symbol><symbol viewBox="0 0 24 24" id="icon-subtract" xmlns="http://www.w3.org/2000/svg"><path d="M4 11h16v2H4z"/></symbol><symbol viewBox="0 0 24 24" id="icon-more" xmlns="http://www.w3.org/2000/svg"><g><circle cx="5" cy="12" r="2"/><circle cx="12" cy="12" r="2"/><circle cx="19" cy="12" r="2"/></g></symbol><symbol viewBox="-408 286.3 24 24" id="icon-next" xmlns="http://www.w3.org/2000/svg"><path d="M-400 289.3c.3 0 .5.1.7.3l8 8c.2.2.3.4.3.7s-.1.5-.3.7l-8 8c-.4.4-1 .4-1.4 0s-.4-1 0-1.4l7.3-7.3-7.3-7.3c-.4-.4-.4-1 0-1.4.2-.2.4-.3.7-.3z"/></symbol><symbol viewBox="0 0 24 24" id="icon-notification" xmlns="http://www.w3.org/2000/svg"><path d="M19.8 16.7L18.5 15v-3c0-3.2-2.1-6-5-6.7v-.8c0-.9-.7-1.6-1.5-1.6s-1.5.7-1.5 1.6v.8c-2.9.7-5 3.5-5 6.7v3l-1.2 1.6-.1.1c-.2.5-.2 1.1.1 1.5.3.4.7.7 1.2.7h4c.2 1.1 1.2 2 2.4 2s2.2-.9 2.4-2h4c.5 0 1-.3 1.2-.7.5-.4.5-1 .3-1.5zM12 19.9c-.7 0-1.2-.4-1.4-1h2.8c-.2.6-.7 1-1.4 1zm6.8-2.2c-.1.1-.2.2-.4.2H5.6c-.2 0-.3-.1-.4-.2-.1-.2-.1-.4-.1-.5l1.4-1.8V12c0-2.8 1.7-5.1 4.2-5.7l.8-.3V4.5c0-.3.2-.6.5-.6s.5.3.5.6V6l.8.2c2.5.6 4.2 3 4.2 5.7v3.4l1.4 1.9c.1.2 0 .3-.1.5z"/></symbol><symbol viewBox="0 0 24 24" id="icon-plat" xmlns="http://www.w3.org/2000/svg"><path d="M10 8l5.3 4-5.3 4z"/><path d="M21.3 7.7c-.3-1.4-1.8-2.7-3.2-3-5.2-.9-7-.9-12.2 0-1.4.2-2.9 1.6-3.2 3-.9 3.4-.9 5.2 0 8.7.3 1.4 1.8 2.7 3.2 3 2.6.4 4.4.6 6.1.6 1.7 0 3.5-.2 6.1-.7 1.4-.3 2.9-1.6 3.2-3 .9-3.4.9-5.2 0-8.6zm-.9 8.4c-.3 1-1.4 2.1-2.4 2.2-2.6.5-4.3.7-6 .7-1.7 0-3.4-.2-5.9-.6-1-.2-2.2-1.3-2.4-2.2-.8-3.3-.8-4.9 0-8.2.3-1 1.4-2.1 2.4-2.2C8.4 5.2 10.2 5 12 5c1.8 0 3.6.3 5.9.7 1 .2 2.2 1.3 2.4 2.2.9 3.3.9 4.9.1 8.2z"/></symbol><symbol viewBox="0 0 24 24" id="icon-add" xmlns="http://www.w3.org/2000/svg" x="0px" y="0px" width="24px" height="24px" enable-background="new 0 0 24 24" xml:space="preserve"><rect x="11" y="4" fill="#000" width="2" height="16"/><rect x="4" y="11" fill="#000" width="16" height="2"/></symbol><symbol viewBox="-408 286.3 24 24" id="icon-previous" xmlns="http://www.w3.org/2000/svg"><path d="M-381 290.3l8 8M-373 298.3l-8 8M-393 307.3c-.3 0-.5-.1-.7-.3l-8-8c-.2-.2-.3-.4-.3-.7s.1-.5.3-.7l8-8c.4-.4 1-.4 1.4 0s.4 1 0 1.4l-7.3 7.3 7.3 7.3c.4.4.4 1 0 1.4-.2.2-.4.3-.7.3z"/></symbol><symbol viewBox="0 0 24 24" id="icon-star" xmlns="http://www.w3.org/2000/svg"><path d="M20.7 11.2c.5-.4.2-1.2-.4-1.2h-5.4c-.3 0-.5-.2-.6-.5l-1.7-6c-.2-.6-1-.6-1.2 0l-1.7 6c-.1.3-.3.4-.6.4H3.6c-.6 0-.9.8-.4 1.2l4.4 2.8c.2.2.3.5.2.8l-1.7 5.4c-.2.6.5 1.1 1 .8l4.4-3.4c.2-.2.5-.2.8 0l4.4 3.4c.5.4 1.2-.1 1-.8L16 14.7c-.1-.3 0-.6.2-.8l4.5-2.7z"/></symbol><symbol viewBox="0 0 24 24" id="icon-search" xmlns="http://www.w3.org/2000/svg"><path d="M20.7 19.3l-4.8-4.8c.9-1.2 1.5-2.7 1.5-4.3 0-4-3.2-7.2-7.2-7.2S3 6.2 3 10.2s3.2 7.2 7.2 7.2c1.6 0 3.1-.5 4.3-1.5l4.8 4.8c.2.2.5.3.7.3s.5-.1.7-.3c.4-.4.4-1 0-1.4zM4 10.2C4 6.8 6.8 4 10.2 4c3.4 0 6.2 2.8 6.2 6.2 0 3.4-2.8 6.2-6.2 6.2-3.4 0-6.2-2.8-6.2-6.2z"/></symbol><symbol viewBox="0 0 24 24" id="icon-dropdown" xmlns="http://www.w3.org/2000/svg"><path d="M16 10l-4 4-4-4z"/></symbol><symbol viewBox="0 0 24 24" id="icon-settings" xmlns="http://www.w3.org/2000/svg"><path d="M19.4 13c0-.3.1-.6.1-1s0-.7-.1-1l2.1-1.6c.2-.1.2-.4.1-.6l-2-3.5c-.1-.2-.4-.3-.6-.2l-2.5 1c-.5-.4-1.1-.7-1.7-1l-.4-2.7c.1-.2-.1-.4-.4-.4h-4c-.2 0-.5.2-.5.4l-.4 2.7c-.6.2-1.1.6-1.7 1l-2.5-1c-.2-.1-.4 0-.6.2l-2 3.5c-.1.1 0 .4.2.6L4.6 11c0 .3-.1.6-.1 1s0 .7.1 1l-2.1 1.6c-.2.1-.2.4-.1.6l2 3.5c.1.2.3.3.6.2l2.5-1c.5.4 1.1.7 1.7 1l.4 2.6c0 .2.2.4.5.4h4c.3 0 .5-.2.5-.4l.4-2.6c.6-.3 1.2-.6 1.7-1l2.5 1c.2.1.5 0 .6-.2l2-3.5c.1-.2.1-.5-.1-.6L19.4 13zM12 15.5c-1.9 0-3.5-1.6-3.5-3.5s1.6-3.5 3.5-3.5 3.5 1.6 3.5 3.5-1.6 3.5-3.5 3.5z"/></symbol><symbol viewBox="0 0 24 24" id="icon-stats" xmlns="http://www.w3.org/2000/svg"><g><path d="M7 11v9H3v-9h4m1-1H2v11h6V10zM21 16v4h-4v-4h4m1-1h-6v6h6v-6zM14 5v15h-4V5h4m1-1H9v17h6V4z"/></g></symbol><symbol viewBox="0 0 24 24" id="icon-edit" xmlns="http://www.w3.org/2000/svg"><path d="M18 6c-1.4-1.4-2.8-2.2-3.2-1.8L4.2 14.9l.4 4.6 4.6.4L19.7 9.2c.4-.4-.4-1.8-1.7-3.2zM8.9 18.9l-3.7-3.7L15 5.4c.3.6.9 1.4 1.6 2.1.7.7 1.5 1.3 2.1 1.6l-9.8 9.8z"/></symbol><symbol viewBox="0 0 36 36" id="icon-cross" xmlns="http://www.w3.org/2000/svg"><path d="M23.178 18.575a.795.795 0 0 1 0-1.15l12.329-12.33c.329-.328.493-.821.493-1.15 0-.329-.164-.822-.493-1.15L33.205.493A1.776 1.776 0 0 0 32.055 0c-.493 0-.822.164-1.15.493l-12.33 12.329a.795.795 0 0 1-1.15 0L5.095.493A1.776 1.776 0 0 0 3.946 0c-.329 0-.822.164-1.15.493L.493 2.795A1.776 1.776 0 0 0 0 3.945c0 .329.164.822.493 1.15l12.329 12.33a.795.795 0 0 1 0 1.15L.493 30.905A1.776 1.776 0 0 0 0 32.054c0 .329.164.822.493 1.15l2.302 2.302c.328.329.821.493 1.15.493.329 0 .822-.164 1.15-.493l12.33-12.329a.795.795 0 0 1 1.15 0l12.33 12.329c.328.329.821.493 1.15.493.329 0 .822-.164 1.15-.493l2.302-2.302c.329-.328.493-.821.493-1.15 0-.329-.164-.822-.493-1.15l-12.329-12.33z" fill-rule="nonzero"/></symbol><symbol viewBox="0 0 41 41" id="icon-cross-circle" xmlns="http://www.w3.org/2000/svg"><g fill-rule="nonzero"><path d="M20.5 0C9.196 0 0 9.197 0 20.5S9.196 41 20.5 41C31.803 41 41 31.803 41 20.5S31.803 0 20.5 0zm0 37.195c-9.208 0-16.698-7.489-16.698-16.695 0-9.208 7.49-16.696 16.698-16.696S37.198 11.292 37.198 20.5c0 9.206-7.49 16.695-16.698 16.695z"/><path d="M28.41 25.583l-4.584-4.585 4.585-4.585a2 2 0 0 0-2.828-2.828l-4.585 4.585-4.584-4.585a2 2 0 0 0-2.828 2.828l4.584 4.585-4.584 4.585a2 2 0 0 0 2.827 2.828l4.585-4.585 4.585 4.585c.39.39.902.585 1.414.585a2 2 0 0 0 1.414-3.414z"/></g></symbol><symbol viewBox="0 0 41 41" id="icon-subtract-circle" xmlns="http://www.w3.org/2000/svg"><g fill-rule="nonzero"><path d="M20.5 0C9.196 0 0 9.197 0 20.5S9.196 41 20.5 41C31.803 41 41 31.803 41 20.5S31.803 0 20.5 0zm0 37.195c-9.208 0-16.698-7.489-16.698-16.695 0-9.208 7.49-16.696 16.698-16.696S37.198 11.292 37.198 20.5c0 9.206-7.49 16.695-16.698 16.695z"/><path d="M28.324 19H12.676c-.925 0-1.676.672-1.676 1.5s.75 1.5 1.676 1.5h15.648c.925 0 1.676-.672 1.676-1.5s-.75-1.5-1.676-1.5z"/></g></symbol><symbol viewBox="0 0 41 41" id="icon-add-circle" xmlns="http://www.w3.org/2000/svg"><g fill-rule="nonzero"><path d="M20.5 0C9.196 0 0 9.197 0 20.5S9.196 41 20.5 41C31.803 41 41 31.803 41 20.5S31.803 0 20.5 0zm0 37.195c-9.208 0-16.698-7.489-16.698-16.695 0-9.208 7.49-16.696 16.698-16.696S37.198 11.292 37.198 20.5c0 9.206-7.49 16.695-16.698 16.695z"/><path d="M28.845 18.332h-7.228v-7.228a1.642 1.642 0 1 0-3.285 0v7.228h-7.228a1.642 1.642 0 1 0 0 3.285h7.227v7.228a1.642 1.642 0 1 0 3.286 0v-7.228h7.227a1.642 1.642 0 1 0 0-3.285z"/></g></symbol><symbol viewBox="0 0 40 31" id="icon-tick-extra" xmlns="http://www.w3.org/2000/svg"><path d="M.462 17.05A1.68 1.68 0 0 1 0 15.965c0-.31.154-.775.462-1.085l2.153-2.17c.616-.62 1.539-.62 2.154 0l.154.155 8.462 9.145a.74.74 0 0 0 1.077 0L35.077.465h.154c.615-.62 1.538-.62 2.154 0l2.153 2.17c.616.62.616 1.55 0 2.17l-24.615 25.73c-.308.31-.615.465-1.077.465-.461 0-.77-.155-1.077-.465l-12-13.02-.307-.465z" fill-rule="nonzero"/></symbol><symbol viewBox="0 0 41 41" id="icon-tick-circle" xmlns="http://www.w3.org/2000/svg"><g fill-rule="nonzero"><path d="M30.414 14.586a2 2 0 0 0-2.828 0L19 23.17l-4.586-4.585a2 2 0 0 0-2.828 2.829l6 6c.39.39.902.585 1.414.585.512 0 1.024-.195 1.414-.586l10-10a2 2 0 0 0 0-2.828z"/><path d="M20.5 0C9.196 0 0 9.197 0 20.5S9.196 41 20.5 41C31.803 41 41 31.803 41 20.5S31.803 0 20.5 0zm0 37.195c-9.208 0-16.698-7.489-16.698-16.695 0-9.208 7.49-16.696 16.698-16.696S37.198 11.292 37.198 20.5c0 9.206-7.49 16.695-16.698 16.695z"/></g></symbol><symbol viewBox="0 0 24 24" id="icon-thumbs-down" xmlns="http://www.w3.org/2000/svg"><path d="M4.1 12.5h.6c-.6 0-1.2.5-1.2 1.2 0 1.3 1 2.3 2.3 2.3h5.5l-.2 1.8c-.1 1.1-.1 2.2.2 3.3.2 1.1 1.2 1.9 2.3 1.9h1.6v-3.5l2-5.9c.2-.7.8-1.2 1.5-1.5l2.4-.8v-7l-1.4-1c-1.4-.8-3-1.3-4.6-1.3H7C5.8 2 4.7 3 4.7 4.3c0 .6.5 1.2 1.2 1.2H4.7c-.6 0-1.2.5-1.2 1.2v1.2c0 .6.6 1.1 1.2 1.1h-.6C3.5 9 3 9.5 3 10.2v1.2c0 .6.5 1.1 1.1 1.1zM4 10.2c0-.1 0-.2.1-.2h.6c.6 0 1-.4 1-1s-.4-1-1-1c-.1 0-.2-.1-.2-.2V6.7c0-.1.1-.2.2-.2h1.2c.6 0 1-.4 1-1s-.4-1-1-1c-.1 0-.2-.1-.2-.2C5.7 3.6 6.3 3 7 3h8c1.4 0 2.8.4 4 1.2l1 .7v5.7l-1.7.6c-1 .3-1.8 1.1-2.1 2.1l-2 5.9c0 .1-.1.2-.1.3V22h-.6c-.6 0-1.2-.5-1.3-1.1-.2-1-.3-2-.2-3l.2-1.8c0-.3-.1-.6-.2-.8-.2-.2-.5-.3-.7-.3H5.9c-.7 0-1.3-.6-1.3-1.3 0-.1.1-.2.2-.2.6 0 1-.4 1-1s-.4-1-1-1h-.7c-.1 0-.1-.1-.1-.2v-1.1z"/></symbol><symbol viewBox="0 0 24 24" id="icon-thumbs-up" xmlns="http://www.w3.org/2000/svg"><path d="M19.9 11.5h-.6c.6 0 1.2-.5 1.2-1.2 0-1.3-1-2.3-2.3-2.3h-5.5l.2-1.8c.1-1.1 0-2.2-.2-3.3-.2-1.1-1.2-1.9-2.3-1.9H8.8v3.5l-2 5.9c-.2.7-.8 1.2-1.5 1.5l-2.3.8v7l1.4 1c1.3.8 2.9 1.3 4.5 1.3H17c1.3 0 2.3-1 2.3-2.3 0-.6-.5-1.2-1.2-1.2h1.2c.6 0 1.2-.5 1.2-1.2v-1.2c0-.6-.5-1.2-1.2-1.2h.6c.6 0 1.2-.5 1.2-1.2v-1.2c-.1-.5-.6-1-1.2-1zm.1 2.3c0 .1-.1.2-.2.2h-.6c-.6 0-1 .4-1 1s.4 1 1 1c.1 0 .2.1.2.2v1.2c0 .1-.1.2-.2.2H18c-.6 0-1 .4-1 1s.4 1 1 1c.1 0 .2.1.2.2 0 .7-.6 1.3-1.3 1.3h-8c-1.4 0-2.8-.4-4-1.2l-1-.7v-5.7l1.7-.6c1-.3 1.8-1.1 2.1-2.1l2-5.9c0-.1.1-.2.1-.3V2h.6c.6 0 1.2.5 1.3 1.1.2 1 .3 2 .2 3l-.2 1.8c0 .3.1.6.2.8.2.2.5.3.8.3h5.4c.7 0 1.3.6 1.3 1.3 0 .1-.1.2-.2.2-.6 0-1 .4-1 1s.4 1 1 1h.6c.1 0 .2.1.2.2v1.1z"/></symbol><symbol viewBox="0 0 24 24" id="icon-tick" xmlns="http://www.w3.org/2000/svg"><path d="M8.6 20.4c-.3 0-.5-.1-.7-.3L.4 12.6c-.4-.4-.4-1 0-1.4s1-.4 1.4 0L8.6 18 22.3 4.3c.4-.4 1-.4 1.4 0 .4.4.4 1 0 1.4L9.3 20.1c-.2.2-.4.3-.7.3z"/></symbol><symbol viewBox="0 0 24 24" id="icon-twitter" xmlns="http://www.w3.org/2000/svg"><path d="M22.1 5.8c-.7.4-1.5.6-2.3.7.8-.5 1.5-1.3 1.8-2.2-.8.5-1.7.8-2.6 1-.8-.8-1.8-1.3-3-1.3-2.3 0-4.1 1.8-4.1 4.1 0 .3 0 .7.1.9-3.4-.2-6.4-1.9-8.4-4.3-.5.6-.7 1.2-.7 2 0 1.4.8 2.7 1.8 3.4-.7 0-1.3-.2-1.8-.5v.1c0 2 1.4 3.7 3.2 4-.3.1-.7.2-1.1.2-.3 0-.5 0-.8-.1.5 1.7 2 2.8 3.8 2.8-1.4 1.1-3.2 1.7-5.1 1.7-.3 0-.7 0-1-.1 1.8 1.2 4 1.8 6.2 1.8 7.6 0 11.7-6.3 11.7-11.7v-.4c1.1-.6 1.7-1.3 2.3-2.1z"/></symbol></svg>
